<?xml version="1.0" standalone="no"?>
<!DOCTYPE svg PUBLIC "-//W3C//DTD SVG 20010904//EN"
 "http://www.w3.org/TR/2001/REC-SVG-20010904/DTD/svg10.dtd">
<svg version="1.0" xmlns="http://www.w3.org/2000/svg"
 width="1024.000000pt" height="1024.000000pt" viewBox="0 0 1024.000000 1024.000000"
 preserveAspectRatio="xMidYMid meet">
<metadata>
Created by potrace 1.14, written by Peter Selinger 2001-2017
</metadata>
<g transform="translate(0.000000,1024.000000) scale(0.100000,-0.100000)"
fill="#000000" stroke="none">
<path d="M3200 9455 c-215 -24 -423 -73 -604 -141 -621 -237 -1103 -677 -1230
-1124 -54 -188 -51 -64 -51 -2530 0 -2468 -2 -2347 52 -2530 31 -107 117 -281
185 -374 61 -84 234 -264 334 -346 178 -147 483 -318 711 -400 250 -88 559
-145 841 -153 l74 -2 -545 -433 c-562 -446 -567 -450 -567 -519 0 -41 28 -92
62 -113 33 -20 43 -20 2658 -20 2615 0 2625 0 2658 20 34 21 62 72 62 113 0
69 -5 73 -567 519 l-545 433 74 2 c282 8 591 65 841 153 228 82 533 253 711
400 100 82 273 262 334 346 105 145 191 351 224 534 19 111 19 4640 0 4750
-23 124 -60 233 -122 356 -128 253 -336 468 -650 673 -330 216 -692 342 -1105
386 -124 13 -399 15 -1932 14 -1380 -1 -1814 -4 -1903 -14z m4671 -1661 c128
-61 210 -175 229 -319 8 -53 10 -406 8 -1055 l-3 -975 -22 -53 c-46 -113 -149
-211 -262 -251 -42 -15 -283 -16 -2701 -16 -2418 0 -2659 1 -2701 16 -113 40
-216 138 -262 251 l-22 53 -3 975 c-2 649 0 1002 8 1055 21 163 118 281 279
341 30 10 524 12 2711 11 l2675 -2 66 -31z m-2571 -3376 c221 -37 472 -204
609 -407 54 -79 116 -226 137 -322 20 -97 20 -301 0 -398 -21 -95 -83 -243
-135 -320 -120 -176 -307 -321 -491 -379 -108 -34 -179 -45 -300 -45 -275 0
-502 98 -688 298 -84 90 -138 171 -183 280 -53 128 -70 215 -70 365 0 150 17
237 70 365 49 118 105 200 200 296 233 232 520 322 851 267z"/>
</g>
</svg>
